<svg xmlns="http://www.w3.org/2000/svg" width="1500" height="1311" viewBox="0 0 1500 1311">
  <defs>
    <style>
      .cls-1 {
        fill: #5ccfc6;
        fill-rule: evenodd;
      }
    </style>
  </defs>
  <path id="content_received" class="cls-1" d="M1015,355h291a6,6,0,0,1,0,12H1015A6,6,0,0,1,1015,355Zm0,34h198a6,6,0,0,1,0,12H1015A6,6,0,0,1,1015,389ZM987,626h159a6,6,0,0,1,0,12H987A6,6,0,0,1,987,626Zm28,110h291a6,6,0,0,1,0,12H1015A6,6,0,0,1,1015,736Zm0,34h198a6,6,0,0,1,0,12H1015A6,6,0,0,1,1015,770ZM78,692H369a6,6,0,0,1,0,12H78A6,6,0,0,1,78,692Zm0,34H276a6,6,0,0,1,0,12H78A6,6,0,0,1,78,726Zm0,238H273a6,6,0,0,1,0,12H78A6,6,0,0,1,78,964Z"/>
</svg>
