<svg xmlns="http://www.w3.org/2000/svg" width="1500" height="1311" viewBox="0 0 1500 1311">
  <defs>
    <style>
      .cls-1 {
        fill: #fff;
        fill-rule: evenodd;
      }
    </style>
  </defs>
  <path id="frame_received" class="cls-1" d="M1009,318h304a40,40,0,0,1,40,40v39a40,40,0,0,1-40,40H1009a40,40,0,0,1-40-40V358A40,40,0,0,1,1009,318ZM958.5,592h190a41.5,41.5,0,0,1,0,83h-190A41.5,41.5,0,0,1,958.5,592ZM1009,700h304a40,40,0,0,1,40,40v39a40,40,0,0,1-40,40H1009a40,40,0,0,1-40-40V740A40,40,0,0,1,1009,700ZM374,774H88.191L72,794V773.2A40.012,40.012,0,0,1,40,734V695a40,40,0,0,1,40-40H374a40,40,0,0,1,40,40v39A40,40,0,0,1,374,774Zm-98.5,237H88.191L72,1031v-21h0.457A41.5,41.5,0,0,1,81.5,928h194A41.5,41.5,0,0,1,275.5,1011Z"/>
</svg>
