<svg xmlns="http://www.w3.org/2000/svg" width="1500" height="1311" viewBox="0 0 1500 1311">
  <defs>
    <style>
      .cls-1 {
        fill: #294790;
        fill-rule: evenodd;
      }
    </style>
  </defs>
  <path id="frame_sent" class="cls-1" d="M1429,563.311V584l-16.19-20H1231.5a41.5,41.5,0,0,1,0-83h190A41.5,41.5,0,0,1,1429,563.311Zm0,364.179V948l-16.19-20H1329.5a41.5,41.5,0,0,1,0-83h93A41.5,41.5,0,0,1,1429,927.49ZM531,899.311V920l-16.19-20H333.5a41.5,41.5,0,0,1,0-83h190A41.5,41.5,0,0,1,531,899.311Z"/>
</svg>
